<svg width="18" height="19" viewBox="0 0 18 19" fill="none" xmlns="http://www.w3.org/2000/svg">
<path d="M13.5882 10.0528C13.7087 9.92222 13.7087 9.72133 13.5882 9.60079L13.1261 9.13874C13.0056 9.01821 12.8047 9.01821 12.6741 9.13874L8.21429 13.5986L6.00446 11.3887C5.87388 11.2682 5.67299 11.2682 5.55246 11.3887L5.0904 11.8508C4.96987 11.9713 4.96987 12.1722 5.0904 12.3028L7.98326 15.1957C8.11384 15.3162 8.31473 15.3162 8.44531 15.1957L13.5882 10.0528ZM1.78571 17.0841V6.79834H15.9286V17.0841H1.78571ZM5.64286 4.86977C5.64286 5.05057 5.50223 5.1912 5.32143 5.1912H4.67857C4.49777 5.1912 4.35714 5.05057 4.35714 4.86977V1.97691C4.35714 1.79611 4.49777 1.65548 4.67857 1.65548H5.32143C5.50223 1.65548 5.64286 1.79611 5.64286 1.97691V4.86977ZM13.3571 4.86977C13.3571 5.05057 13.2165 5.1912 13.0357 5.1912H12.3929C12.2121 5.1912 12.0714 5.05057 12.0714 4.86977V1.97691C12.0714 1.79611 12.2121 1.65548 12.3929 1.65548H13.0357C13.2165 1.65548 13.3571 1.79611 13.3571 1.97691V4.86977ZM17.2143 4.22691C17.2143 3.52379 16.6317 2.9412 15.9286 2.9412H14.6429V1.97691C14.6429 1.09298 13.9196 0.369767 13.0357 0.369767H12.3929C11.5089 0.369767 10.7857 1.09298 10.7857 1.97691V2.9412H6.92857V1.97691C6.92857 1.09298 6.20536 0.369767 5.32143 0.369767H4.67857C3.79464 0.369767 3.07143 1.09298 3.07143 1.97691V2.9412H1.78571C1.08259 2.9412 0.5 3.52379 0.5 4.22691V17.0841C0.5 17.7872 1.08259 18.3698 1.78571 18.3698H15.9286C16.6317 18.3698 17.2143 17.7872 17.2143 17.0841V4.22691Z" fill="#151439" fill-opacity="0.4"/>
</svg>
