<svg width="15" height="19" viewBox="0 0 15 19" fill="none" xmlns="http://www.w3.org/2000/svg">
<path d="M14.2832 0.369767H1.42606C1.0745 0.369767 0.783203 0.661063 0.783203 1.01263V17.7269C0.783203 18.0785 1.0745 18.3698 1.42606 18.3698H14.2832C14.6348 18.3698 14.9261 18.0785 14.9261 17.7269V1.01263C14.9261 0.661063 14.6348 0.369767 14.2832 0.369767ZM5.92606 3.26263C5.92606 3.08182 6.06669 2.9412 6.24749 2.9412H6.89035C7.07115 2.9412 7.21177 3.08182 7.21177 3.26263V3.90548C7.21177 4.08629 7.07115 4.22691 6.89035 4.22691H6.24749C6.06669 4.22691 5.92606 4.08629 5.92606 3.90548V3.26263ZM5.92606 5.83405C5.92606 5.65325 6.06669 5.51263 6.24749 5.51263H6.89035C7.07115 5.51263 7.21177 5.65325 7.21177 5.83405V6.47691C7.21177 6.65771 7.07115 6.79834 6.89035 6.79834H6.24749C6.06669 6.79834 5.92606 6.65771 5.92606 6.47691V5.83405ZM5.92606 8.40548C5.92606 8.22468 6.06669 8.08405 6.24749 8.08405H6.89035C7.07115 8.08405 7.21177 8.22468 7.21177 8.40548V9.04834C7.21177 9.22914 7.07115 9.36977 6.89035 9.36977H6.24749C6.06669 9.36977 5.92606 9.22914 5.92606 9.04834V8.40548ZM5.92606 10.9769C5.92606 10.7961 6.06669 10.6555 6.24749 10.6555H6.89035C7.07115 10.6555 7.21177 10.7961 7.21177 10.9769V11.6198C7.21177 11.8006 7.07115 11.9412 6.89035 11.9412H6.24749C6.06669 11.9412 5.92606 11.8006 5.92606 11.6198V10.9769ZM4.64035 14.1912C4.64035 14.372 4.49972 14.5126 4.31892 14.5126H3.67606C3.49526 14.5126 3.35463 14.372 3.35463 14.1912V13.5483C3.35463 13.3675 3.49526 13.2269 3.67606 13.2269H4.31892C4.49972 13.2269 4.64035 13.3675 4.64035 13.5483V14.1912ZM4.64035 11.6198C4.64035 11.8006 4.49972 11.9412 4.31892 11.9412H3.67606C3.49526 11.9412 3.35463 11.8006 3.35463 11.6198V10.9769C3.35463 10.7961 3.49526 10.6555 3.67606 10.6555H4.31892C4.49972 10.6555 4.64035 10.7961 4.64035 10.9769V11.6198ZM4.64035 9.04834C4.64035 9.22914 4.49972 9.36977 4.31892 9.36977H3.67606C3.49526 9.36977 3.35463 9.22914 3.35463 9.04834V8.40548C3.35463 8.22468 3.49526 8.08405 3.67606 8.08405H4.31892C4.49972 8.08405 4.64035 8.22468 4.64035 8.40548V9.04834ZM4.64035 6.47691C4.64035 6.65771 4.49972 6.79834 4.31892 6.79834H3.67606C3.49526 6.79834 3.35463 6.65771 3.35463 6.47691V5.83405C3.35463 5.65325 3.49526 5.51263 3.67606 5.51263H4.31892C4.49972 5.51263 4.64035 5.65325 4.64035 5.83405V6.47691ZM4.64035 3.90548C4.64035 4.08629 4.49972 4.22691 4.31892 4.22691H3.67606C3.49526 4.22691 3.35463 4.08629 3.35463 3.90548V3.26263C3.35463 3.08182 3.49526 2.9412 3.67606 2.9412H4.31892C4.49972 2.9412 4.64035 3.08182 4.64035 3.26263V3.90548ZM9.7832 16.7626C9.7832 16.9434 9.64258 17.0841 9.46177 17.0841H6.24749C6.06669 17.0841 5.92606 16.9434 5.92606 16.7626V14.8341C5.92606 14.6533 6.06669 14.5126 6.24749 14.5126H9.46177C9.64258 14.5126 9.7832 14.6533 9.7832 14.8341V16.7626ZM9.7832 11.6198C9.7832 11.8006 9.64258 11.9412 9.46177 11.9412H8.81892C8.63811 11.9412 8.49749 11.8006 8.49749 11.6198V10.9769C8.49749 10.7961 8.63811 10.6555 8.81892 10.6555H9.46177C9.64258 10.6555 9.7832 10.7961 9.7832 10.9769V11.6198ZM9.7832 9.04834C9.7832 9.22914 9.64258 9.36977 9.46177 9.36977H8.81892C8.63811 9.36977 8.49749 9.22914 8.49749 9.04834V8.40548C8.49749 8.22468 8.63811 8.08405 8.81892 8.08405H9.46177C9.64258 8.08405 9.7832 8.22468 9.7832 8.40548V9.04834ZM9.7832 6.47691C9.7832 6.65771 9.64258 6.79834 9.46177 6.79834H8.81892C8.63811 6.79834 8.49749 6.65771 8.49749 6.47691V5.83405C8.49749 5.65325 8.63811 5.51263 8.81892 5.51263H9.46177C9.64258 5.51263 9.7832 5.65325 9.7832 5.83405V6.47691ZM9.7832 3.90548C9.7832 4.08629 9.64258 4.22691 9.46177 4.22691H8.81892C8.63811 4.22691 8.49749 4.08629 8.49749 3.90548V3.26263C8.49749 3.08182 8.63811 2.9412 8.81892 2.9412H9.46177C9.64258 2.9412 9.7832 3.08182 9.7832 3.26263V3.90548ZM12.3546 14.1912C12.3546 14.372 12.214 14.5126 12.0332 14.5126H11.3903C11.2095 14.5126 11.0689 14.372 11.0689 14.1912V13.5483C11.0689 13.3675 11.2095 13.2269 11.3903 13.2269H12.0332C12.214 13.2269 12.3546 13.3675 12.3546 13.5483V14.1912ZM12.3546 11.6198C12.3546 11.8006 12.214 11.9412 12.0332 11.9412H11.3903C11.2095 11.9412 11.0689 11.8006 11.0689 11.6198V10.9769C11.0689 10.7961 11.2095 10.6555 11.3903 10.6555H12.0332C12.214 10.6555 12.3546 10.7961 12.3546 10.9769V11.6198ZM12.3546 9.04834C12.3546 9.22914 12.214 9.36977 12.0332 9.36977H11.3903C11.2095 9.36977 11.0689 9.22914 11.0689 9.04834V8.40548C11.0689 8.22468 11.2095 8.08405 11.3903 8.08405H12.0332C12.214 8.08405 12.3546 8.22468 12.3546 8.40548V9.04834ZM12.3546 6.47691C12.3546 6.65771 12.214 6.79834 12.0332 6.79834H11.3903C11.2095 6.79834 11.0689 6.65771 11.0689 6.47691V5.83405C11.0689 5.65325 11.2095 5.51263 11.3903 5.51263H12.0332C12.214 5.51263 12.3546 5.65325 12.3546 5.83405V6.47691ZM12.3546 3.90548C12.3546 4.08629 12.214 4.22691 12.0332 4.22691H11.3903C11.2095 4.22691 11.0689 4.08629 11.0689 3.90548V3.26263C11.0689 3.08182 11.2095 2.9412 11.3903 2.9412H12.0332C12.214 2.9412 12.3546 3.08182 12.3546 3.26263V3.90548Z" fill="#151439" fill-opacity="0.4"/>
</svg>
