<svg width="11" height="19" viewBox="0 0 11 19" fill="none" xmlns="http://www.w3.org/2000/svg">
<path d="M10.1821 12.2727C10.1821 9.85191 8.09277 9.03829 6.24456 8.32513C4.81822 7.77267 3.59277 7.30057 3.59277 6.23584C3.59277 5.32178 4.4767 4.68896 5.75237 4.68896C7.25907 4.68896 8.47447 5.76374 8.48451 5.77379C8.56487 5.83405 8.65527 5.86419 8.75572 5.8441C8.85617 5.83405 8.93652 5.77379 8.98675 5.68338L9.80036 4.21687C9.87068 4.09633 9.85059 3.94566 9.75014 3.83517C9.70996 3.79499 8.62514 2.69008 6.58608 2.45905V0.691197C6.58608 0.510393 6.44545 0.369767 6.26465 0.369767H4.90862C4.73786 0.369767 4.58719 0.510393 4.58719 0.691197V2.49923C2.48786 2.90102 1.04143 4.4278 1.04143 6.27602C1.04143 8.79722 3.29143 9.70124 5.09947 10.4144C6.4555 10.9568 7.64076 11.4289 7.64076 12.3932C7.64076 13.5283 6.57603 14.0506 5.59166 14.0506C3.81376 14.0506 2.40751 12.7046 2.38742 12.6945C2.32715 12.6242 2.23675 12.5941 2.14634 12.6041C2.05594 12.6142 1.96554 12.6544 1.91532 12.7247L0.88072 14.0807C0.790318 14.2012 0.800363 14.372 0.900809 14.4925C0.951032 14.5528 2.23675 15.9591 4.58719 16.2905V18.0483C4.58719 18.2291 4.73786 18.3698 4.90862 18.3698H6.26465C6.44545 18.3698 6.58608 18.2291 6.58608 18.0483V16.2905C8.71554 15.939 10.1821 14.3218 10.1821 12.2727Z" fill="#151439" fill-opacity="0.4"/>
</svg>
